<svg xmlns="http://www.w3.org/2000/svg" id="Layer_1" viewBox="0 0 53 50">
  <style>
    .st0{fill:#FFFFFF;}
  </style>
  <path d="M31.8 29.2c1.2.4 2.5.1 3.4-.8 1.3-1.3 1.3-3.5 0-4.8-1.3-1.3-3.5-1.3-4.8 0L12.7 5.8C14 4.4 14 2.3 12.7 1S9.2-.3 7.9 1c-.9.9-1.2 2.3-.8 3.4-1.2-.4-2.5-.1-3.5.8-1.3 1.3-1.3 3.5 0 4.8 1.2 1.2 3.1 1.3 4.4.3l17.9 17.9c-1 1.3-.9 3.2.3 4.4 1.3 1.3 3.5 1.3 4.8 0 1-.9 1.2-2.2.8-3.4zM36 45.7c-1.3-1-3.2-.9-4.4.3-1.1 1.1-1.3 2.7-.6 4h9.9L53 37.9v-9.2l-17 17zM40.5 0h-9.9c.2.3.3.6.6.8.9.9 2.3 1.2 3.4.8-.4 1.2-.1 2.5.8 3.4 1.3 1.3 3.5 1.3 4.8 0 1.3-1.3 1.3-3.5 0-4.8l.3-.2zM10.3 27.6c-.9-.9-2.3-1.2-3.4-.8.3-1.1.1-2.5-.9-3.4-1.3-1.3-3.5-1.3-4.8 0C0 24.6-.1 26.5.9 27.8l-.9 1V38l5.5-5.5c1.3 1.3 3.5 1.3 4.8 0 1.3-1.4 1.3-3.6 0-4.9z" class="st0"/>
</svg>
